<?xml version="1.0" encoding="UTF-8"?>
<svg viewBox="0 0 200 200" xmlns="http://www.w3.org/2000/svg" role="img" aria-labelledby="wechat-qr-title">
  <title id="wechat-qr-title">BeiLuo WeChat QR code placeholder</title>
  <rect width="200" height="200" fill="#FFFFFF"/>
  <g fill="#1A2433">
<rect x="0" y="0" width="8" height="8"/><rect x="8" y="0" width="8" height="8"/><rect x="16" y="0" width="8" height="8"/><rect x="24" y="0" width="8" height="8"/><rect x="32" y="0" width="8" height="8"/><rect x="40" y="0" width="8" height="8"/><rect x="48" y="0" width="8" height="8"/><rect x="72" y="0" width="8" height="8"/><rect x="80" y="0" width="8" height="8"/><rect x="88" y="0" width="8" height="8"/><rect x="96" y="0" width="8" height="8"/><rect x="104" y="0" width="8" height="8"/><rect x="112" y="0" width="8" height="8"/><rect x="120" y="0" width="8" height="8"/><rect x="128" y="0" width="8" height="8"/><rect x="144" y="0" width="8" height="8"/><rect x="152" y="0" width="8" height="8"/><rect x="160" y="0" width="8" height="8"/><rect x="168" y="0" width="8" height="8"/><rect x="176" y="0" width="8" height="8"/><rect x="184" y="0" width="8" height="8"/><rect x="192" y="0" width="8" height="8"/><rect x="0" y="8" width="8" height="8"/><rect x="48" y="8" width="8" height="8"/><rect x="72" y="8" width="8" height="8"/><rect x="88" y="8" width="8" height="8"/><rect x="104" y="8" width="8" height="8"/><rect x="112" y="8" width="8" height="8"/><rect x="120" y="8" width="8" height="8"/><rect x="144" y="8" width="8" height="8"/><rect x="192" y="8" width="8" height="8"/><rect x="0" y="16" width="8" height="8"/><rect x="16" y="16" width="8" height="8"/><rect x="24" y="16" width="8" height="8"/><rect x="32" y="16" width="8" height="8"/><rect x="48" y="16" width="8" height="8"/><rect x="64" y="16" width="8" height="8"/><rect x="72" y="16" width="8" height="8"/><rect x="80" y="16" width="8" height="8"/><rect x="88" y="16" width="8" height="8"/><rect x="96" y="16" width="8" height="8"/><rect x="104" y="16" width="8" height="8"/><rect x="112" y="16" width="8" height="8"/><rect x="144" y="16" width="8" height="8"/><rect x="160" y="16" width="8" height="8"/><rect x="168" y="16" width="8" height="8"/><rect x="176" y="16" width="8" height="8"/><rect x="192" y="16" width="8" height="8"/><rect x="0" y="24" width="8" height="8"/><rect x="16" y="24" width="8" height="8"/><rect x="24" y="24" width="8" height="8"/><rect x="32" y="24" width="8" height="8"/><rect x="48" y="24" width="8" height="8"/><rect x="64" y="24" width="8" height="8"/><rect x="88" y="24" width="8" height="8"/><rect x="96" y="24" width="8" height="8"/><rect x="104" y="24" width="8" height="8"/><rect x="128" y="24" width="8" height="8"/><rect x="144" y="24" width="8" height="8"/><rect x="160" y="24" width="8" height="8"/><rect x="168" y="24" width="8" height="8"/><rect x="176" y="24" width="8" height="8"/><rect x="192" y="24" width="8" height="8"/><rect x="0" y="32" width="8" height="8"/><rect x="16" y="32" width="8" height="8"/><rect x="24" y="32" width="8" height="8"/><rect x="32" y="32" width="8" height="8"/><rect x="48" y="32" width="8" height="8"/><rect x="64" y="32" width="8" height="8"/><rect x="80" y="32" width="8" height="8"/><rect x="88" y="32" width="8" height="8"/><rect x="96" y="32" width="8" height="8"/><rect x="112" y="32" width="8" height="8"/><rect x="120" y="32" width="8" height="8"/><rect x="128" y="32" width="8" height="8"/><rect x="144" y="32" width="8" height="8"/><rect x="160" y="32" width="8" height="8"/><rect x="168" y="32" width="8" height="8"/><rect x="176" y="32" width="8" height="8"/><rect x="192" y="32" width="8" height="8"/><rect x="0" y="40" width="8" height="8"/><rect x="48" y="40" width="8" height="8"/><rect x="72" y="40" width="8" height="8"/><rect x="80" y="40" width="8" height="8"/><rect x="96" y="40" width="8" height="8"/><rect x="104" y="40" width="8" height="8"/><rect x="112" y="40" width="8" height="8"/><rect x="128" y="40" width="8" height="8"/><rect x="144" y="40" width="8" height="8"/><rect x="192" y="40" width="8" height="8"/><rect x="0" y="48" width="8" height="8"/><rect x="8" y="48" width="8" height="8"/><rect x="16" y="48" width="8" height="8"/><rect x="24" y="48" width="8" height="8"/><rect x="32" y="48" width="8" height="8"/><rect x="40" y="48" width="8" height="8"/><rect x="48" y="48" width="8" height="8"/><rect x="64" y="48" width="8" height="8"/><rect x="80" y="48" width="8" height="8"/><rect x="104" y="48" width="8" height="8"/><rect x="112" y="48" width="8" height="8"/><rect x="120" y="48" width="8" height="8"/><rect x="128" y="48" width="8" height="8"/><rect x="144" y="48" width="8" height="8"/><rect x="152" y="48" width="8" height="8"/><rect x="160" y="48" width="8" height="8"/><rect x="168" y="48" width="8" height="8"/><rect x="176" y="48" width="8" height="8"/><rect x="184" y="48" width="8" height="8"/><rect x="192" y="48" width="8" height="8"/><rect x="80" y="56" width="8" height="8"/><rect x="96" y="56" width="8" height="8"/><rect x="128" y="56" width="8" height="8"/><rect x="0" y="64" width="8" height="8"/><rect x="8" y="64" width="8" height="8"/><rect x="24" y="64" width="8" height="8"/><rect x="32" y="64" width="8" height="8"/><rect x="80" y="64" width="8" height="8"/><rect x="96" y="64" width="8" height="8"/><rect x="104" y="64" width="8" height="8"/><rect x="128" y="64" width="8" height="8"/><rect x="152" y="64" width="8" height="8"/><rect x="168" y="64" width="8" height="8"/><rect x="176" y="64" width="8" height="8"/><rect x="8" y="72" width="8" height="8"/><rect x="16" y="72" width="8" height="8"/><rect x="24" y="72" width="8" height="8"/><rect x="32" y="72" width="8" height="8"/><rect x="40" y="72" width="8" height="8"/><rect x="56" y="72" width="8" height="8"/><rect x="64" y="72" width="8" height="8"/><rect x="80" y="72" width="8" height="8"/><rect x="120" y="72" width="8" height="8"/><rect x="128" y="72" width="8" height="8"/><rect x="136" y="72" width="8" height="8"/><rect x="144" y="72" width="8" height="8"/><rect x="152" y="72" width="8" height="8"/><rect x="176" y="72" width="8" height="8"/><rect x="184" y="72" width="8" height="8"/><rect x="8" y="80" width="8" height="8"/><rect x="32" y="80" width="8" height="8"/><rect x="64" y="80" width="8" height="8"/><rect x="80" y="80" width="8" height="8"/><rect x="104" y="80" width="8" height="8"/><rect x="112" y="80" width="8" height="8"/><rect x="120" y="80" width="8" height="8"/><rect x="128" y="80" width="8" height="8"/><rect x="160" y="80" width="8" height="8"/><rect x="184" y="80" width="8" height="8"/><rect x="192" y="80" width="8" height="8"/><rect x="16" y="88" width="8" height="8"/><rect x="24" y="88" width="8" height="8"/><rect x="32" y="88" width="8" height="8"/><rect x="48" y="88" width="8" height="8"/><rect x="80" y="88" width="8" height="8"/><rect x="96" y="88" width="8" height="8"/><rect x="128" y="88" width="8" height="8"/><rect x="136" y="88" width="8" height="8"/><rect x="152" y="88" width="8" height="8"/><rect x="160" y="88" width="8" height="8"/><rect x="168" y="88" width="8" height="8"/><rect x="0" y="96" width="8" height="8"/><rect x="8" y="96" width="8" height="8"/><rect x="48" y="96" width="8" height="8"/><rect x="64" y="96" width="8" height="8"/><rect x="112" y="96" width="8" height="8"/><rect x="120" y="96" width="8" height="8"/><rect x="136" y="96" width="8" height="8"/><rect x="144" y="96" width="8" height="8"/><rect x="176" y="96" width="8" height="8"/><rect x="184" y="96" width="8" height="8"/><rect x="0" y="104" width="8" height="8"/><rect x="16" y="104" width="8" height="8"/><rect x="24" y="104" width="8" height="8"/><rect x="32" y="104" width="8" height="8"/><rect x="80" y="104" width="8" height="8"/><rect x="128" y="104" width="8" height="8"/><rect x="144" y="104" width="8" height="8"/><rect x="152" y="104" width="8" height="8"/><rect x="160" y="104" width="8" height="8"/><rect x="168" y="104" width="8" height="8"/><rect x="176" y="104" width="8" height="8"/><rect x="184" y="104" width="8" height="8"/><rect x="8" y="112" width="8" height="8"/><rect x="24" y="112" width="8" height="8"/><rect x="32" y="112" width="8" height="8"/><rect x="40" y="112" width="8" height="8"/><rect x="56" y="112" width="8" height="8"/><rect x="96" y="112" width="8" height="8"/><rect x="120" y="112" width="8" height="8"/><rect x="128" y="112" width="8" height="8"/><rect x="176" y="112" width="8" height="8"/><rect x="184" y="112" width="8" height="8"/><rect x="192" y="112" width="8" height="8"/><rect x="8" y="120" width="8" height="8"/><rect x="16" y="120" width="8" height="8"/><rect x="32" y="120" width="8" height="8"/><rect x="64" y="120" width="8" height="8"/><rect x="88" y="120" width="8" height="8"/><rect x="136" y="120" width="8" height="8"/><rect x="144" y="120" width="8" height="8"/><rect x="160" y="120" width="8" height="8"/><rect x="176" y="120" width="8" height="8"/><rect x="8" y="128" width="8" height="8"/><rect x="24" y="128" width="8" height="8"/><rect x="32" y="128" width="8" height="8"/><rect x="48" y="128" width="8" height="8"/><rect x="56" y="128" width="8" height="8"/><rect x="80" y="128" width="8" height="8"/><rect x="88" y="128" width="8" height="8"/><rect x="96" y="128" width="8" height="8"/><rect x="112" y="128" width="8" height="8"/><rect x="128" y="128" width="8" height="8"/><rect x="144" y="128" width="8" height="8"/><rect x="176" y="128" width="8" height="8"/><rect x="184" y="128" width="8" height="8"/><rect x="64" y="136" width="8" height="8"/><rect x="96" y="136" width="8" height="8"/><rect x="120" y="136" width="8" height="8"/><rect x="128" y="136" width="8" height="8"/><rect x="144" y="136" width="8" height="8"/><rect x="152" y="136" width="8" height="8"/><rect x="160" y="136" width="8" height="8"/><rect x="168" y="136" width="8" height="8"/><rect x="192" y="136" width="8" height="8"/><rect x="0" y="144" width="8" height="8"/><rect x="8" y="144" width="8" height="8"/><rect x="16" y="144" width="8" height="8"/><rect x="24" y="144" width="8" height="8"/><rect x="32" y="144" width="8" height="8"/><rect x="40" y="144" width="8" height="8"/><rect x="48" y="144" width="8" height="8"/><rect x="64" y="144" width="8" height="8"/><rect x="96" y="144" width="8" height="8"/><rect x="144" y="144" width="8" height="8"/><rect x="160" y="144" width="8" height="8"/><rect x="184" y="144" width="8" height="8"/><rect x="0" y="152" width="8" height="8"/><rect x="48" y="152" width="8" height="8"/><rect x="64" y="152" width="8" height="8"/><rect x="96" y="152" width="8" height="8"/><rect x="120" y="152" width="8" height="8"/><rect x="128" y="152" width="8" height="8"/><rect x="136" y="152" width="8" height="8"/><rect x="152" y="152" width="8" height="8"/><rect x="168" y="152" width="8" height="8"/><rect x="184" y="152" width="8" height="8"/><rect x="0" y="160" width="8" height="8"/><rect x="16" y="160" width="8" height="8"/><rect x="24" y="160" width="8" height="8"/><rect x="32" y="160" width="8" height="8"/><rect x="48" y="160" width="8" height="8"/><rect x="72" y="160" width="8" height="8"/><rect x="80" y="160" width="8" height="8"/><rect x="88" y="160" width="8" height="8"/><rect x="104" y="160" width="8" height="8"/><rect x="112" y="160" width="8" height="8"/><rect x="120" y="160" width="8" height="8"/><rect x="160" y="160" width="8" height="8"/><rect x="168" y="160" width="8" height="8"/><rect x="176" y="160" width="8" height="8"/><rect x="0" y="168" width="8" height="8"/><rect x="16" y="168" width="8" height="8"/><rect x="24" y="168" width="8" height="8"/><rect x="32" y="168" width="8" height="8"/><rect x="48" y="168" width="8" height="8"/><rect x="80" y="168" width="8" height="8"/><rect x="96" y="168" width="8" height="8"/><rect x="104" y="168" width="8" height="8"/><rect x="120" y="168" width="8" height="8"/><rect x="128" y="168" width="8" height="8"/><rect x="136" y="168" width="8" height="8"/><rect x="152" y="168" width="8" height="8"/><rect x="184" y="168" width="8" height="8"/><rect x="0" y="176" width="8" height="8"/><rect x="16" y="176" width="8" height="8"/><rect x="24" y="176" width="8" height="8"/><rect x="32" y="176" width="8" height="8"/><rect x="48" y="176" width="8" height="8"/><rect x="72" y="176" width="8" height="8"/><rect x="88" y="176" width="8" height="8"/><rect x="112" y="176" width="8" height="8"/><rect x="144" y="176" width="8" height="8"/><rect x="152" y="176" width="8" height="8"/><rect x="168" y="176" width="8" height="8"/><rect x="176" y="176" width="8" height="8"/><rect x="192" y="176" width="8" height="8"/><rect x="0" y="184" width="8" height="8"/><rect x="48" y="184" width="8" height="8"/><rect x="64" y="184" width="8" height="8"/><rect x="80" y="184" width="8" height="8"/><rect x="104" y="184" width="8" height="8"/><rect x="112" y="184" width="8" height="8"/><rect x="120" y="184" width="8" height="8"/><rect x="152" y="184" width="8" height="8"/><rect x="168" y="184" width="8" height="8"/><rect x="176" y="184" width="8" height="8"/><rect x="192" y="184" width="8" height="8"/><rect x="0" y="192" width="8" height="8"/><rect x="8" y="192" width="8" height="8"/><rect x="16" y="192" width="8" height="8"/><rect x="24" y="192" width="8" height="8"/><rect x="32" y="192" width="8" height="8"/><rect x="40" y="192" width="8" height="8"/><rect x="48" y="192" width="8" height="8"/><rect x="64" y="192" width="8" height="8"/><rect x="88" y="192" width="8" height="8"/><rect x="112" y="192" width="8" height="8"/><rect x="128" y="192" width="8" height="8"/><rect x="152" y="192" width="8" height="8"/><rect x="168" y="192" width="8" height="8"/><rect x="192" y="192" width="8" height="8"/>
  </g>
</svg>
